<?xml version="1.0" standalone="no"?>
<!DOCTYPE svg PUBLIC "-//W3C//DTD SVG 20010904//EN"
 "http://www.w3.org/TR/2001/REC-SVG-20010904/DTD/svg10.dtd">
<svg version="1.0" xmlns="http://www.w3.org/2000/svg"
 width="512.000000pt" height="512.000000pt" viewBox="0 0 512.000000 512.000000"
 preserveAspectRatio="xMidYMid meet">

<g transform="translate(0.000000,512.000000) scale(0.100000,-0.100000)"
fill="#000000" stroke="none">
<path d="M2405 5113 c-769 -47 -1477 -439 -1927 -1068 -242 -338 -399 -740
-459 -1175 -19 -131 -19 -524 0 -567 31 -75 136 -87 173 -20 8 15 12 95 14
257 1 160 7 269 18 340 78 499 283 928 615 1285 652 701 1652 937 2549 602 45
-17 82 -34 82 -38 0 -4 -18 -18 -41 -31 -42 -24 -69 -62 -69 -98 0 -52 49
-100 102 -100 28 0 265 136 306 176 21 22 32 42 32 61 0 34 -139 286 -177 321
-58 53 -163 3 -163 -78 0 -11 -3 -20 -6 -20 -4 0 -63 18 -133 40 -283 91 -614
132 -916 113z"/>
<path d="M4296 5088 c-33 -32 -497 -632 -565 -731 -43 -64 -84 -156 -107 -242
-25 -95 -25 -293 0 -384 61 -223 210 -404 410 -501 130 -62 185 -75 326 -75
141 0 196 13 326 75 200 97 349 278 410 501 25 91 25 289 0 384 -23 86 -64
178 -106 240 -95 138 -555 733 -578 747 -41 27 -78 23 -116 -14z m286 -524
c250 -328 272 -361 304 -452 71 -206 18 -440 -135 -593 -81 -80 -155 -123
-257 -149 -98 -25 -170 -25 -268 0 -210 53 -367 224 -413 447 -15 69 -16 95
-6 172 20 155 47 203 313 552 129 169 238 307 242 306 4 -1 103 -128 220 -283z"/>
<path d="M4634 4005 c-25 -17 -40 -53 -49 -116 -8 -60 -53 -131 -103 -163 -22
-14 -68 -30 -103 -36 -38 -7 -73 -20 -86 -32 -47 -44 -36 -127 21 -157 43 -24
146 -9 231 33 126 62 211 177 236 317 14 77 8 111 -26 145 -28 28 -88 33 -121
9z"/>
<path d="M2504 4522 c-30 -24 -1028 -1300 -1092 -1396 -175 -261 -256 -589
-223 -899 68 -625 534 -1120 1151 -1222 109 -19 331 -19 440 0 672 112 1160
691 1160 1377 0 225 -83 508 -205 703 -54 86 -1028 1348 -1094 1418 -29 31
-42 37 -76 37 -23 0 -49 -8 -61 -18z m530 -851 c505 -649 519 -668 577 -783
82 -164 120 -327 120 -523 1 -307 -108 -585 -316 -804 -224 -238 -532 -371
-855 -371 -559 0 -1039 394 -1151 944 -25 125 -27 323 -4 443 33 170 108 347
203 476 117 159 950 1217 958 1217 1 0 212 -269 468 -599z"/>
<path d="M3433 2683 c-37 -7 -73 -59 -73 -105 0 -32 6 -46 31 -69 95 -89 231
45 142 140 -29 30 -61 41 -100 34z"/>
<path d="M3371 2252 c-16 -15 -37 -56 -50 -96 -65 -203 -197 -360 -383 -456
-98 -51 -118 -72 -118 -123 0 -49 13 -73 50 -92 40 -21 58 -19 126 11 215 95
409 299 498 526 41 105 51 161 36 198 -26 62 -112 80 -159 32z"/>
<path d="M4928 2949 c-30 -30 -31 -32 -24 -102 24 -269 16 -485 -25 -707 -86
-457 -301 -875 -622 -1207 -383 -396 -828 -626 -1377 -710 -141 -21 -481 -24
-615 -4 -165 24 -439 90 -488 118 -5 3 14 20 42 39 61 41 81 69 81 112 0 24
-9 42 -30 64 -47 47 -89 37 -230 -52 -205 -128 -207 -137 -89 -326 102 -163
108 -169 165 -169 38 0 50 5 70 28 13 15 24 39 24 53 0 13 3 24 6 24 4 0 47
-11 98 -25 267 -72 582 -99 856 -74 1254 113 2223 1080 2340 2334 19 202 4
529 -26 587 -30 58 -107 67 -156 17z"/>
<path d="M696 2048 c-33 -31 -495 -630 -565 -731 -87 -127 -126 -262 -125
-437 1 -234 76 -407 249 -568 86 -80 210 -149 325 -179 100 -27 284 -24 380 6
266 82 463 285 536 552 25 91 25 289 0 384 -23 86 -64 178 -107 242 -92 134
-553 730 -577 745 -41 27 -78 23 -116 -14z m295 -533 c245 -322 261 -346 295
-443 73 -210 19 -440 -140 -597 -221 -218 -551 -218 -772 0 -156 154 -210 380
-142 588 30 92 46 118 175 287 65 86 170 224 233 307 63 84 118 151 122 150 4
-1 107 -132 229 -292z"/>
<path d="M1034 965 c-25 -17 -40 -53 -49 -116 -7 -59 -53 -131 -102 -163 -21
-14 -67 -30 -103 -36 -74 -13 -107 -37 -116 -85 -7 -40 14 -85 50 -104 43 -24
146 -9 231 33 126 62 214 181 237 319 12 76 6 110 -27 143 -28 28 -88 33 -121
9z"/>
</g>
</svg>
