<?xml version="1.0" standalone="no"?>
<!DOCTYPE svg PUBLIC "-//W3C//DTD SVG 20010904//EN"
 "http://www.w3.org/TR/2001/REC-SVG-20010904/DTD/svg10.dtd">
<svg version="1.0" xmlns="http://www.w3.org/2000/svg"
 width="512.000000pt" height="512.000000pt" viewBox="0 0 512.000000 512.000000"
 preserveAspectRatio="xMidYMid meet">

<g transform="translate(0.000000,512.000000) scale(0.100000,-0.100000)"
fill="#000000" stroke="none">
<path d="M3956 5088 c-33 -32 -871 -1340 -919 -1435 -41 -81 -84 -213 -101
-312 -58 -338 58 -706 304 -965 297 -313 721 -423 1119 -290 272 91 524 322
652 599 67 146 109 334 109 491 0 141 -50 345 -117 477 -48 95 -886 1403 -919
1435 -23 22 -43 32 -64 32 -21 0 -41 -10 -64 -32z m404 -794 c184 -290 363
-572 397 -628 112 -182 154 -320 154 -501 -1 -270 -110 -518 -309 -698 -339
-309 -840 -306 -1167 5 -205 194 -305 422 -306 698 -1 156 37 297 117 436 48
83 769 1214 774 1214 3 0 156 -237 340 -526z"/>
<path d="M4449 3561 c-37 -37 -39 -88 -5 -146 118 -200 81 -459 -90 -629 -92
-93 -182 -135 -318 -151 -78 -9 -116 -43 -116 -105 0 -33 6 -48 29 -71 26 -26
36 -29 94 -29 238 0 491 169 603 405 71 148 93 331 58 482 -19 86 -86 225
-120 252 -41 32 -98 28 -135 -8z"/>
<path d="M1810 2363 c-14 -2 -211 -54 -438 -115 l-413 -110 -34 27 c-20 14
-56 35 -80 46 -81 36 -135 29 -478 -62 -327 -87 -348 -96 -363 -154 -4 -18 55
-256 200 -798 114 -425 212 -785 218 -800 14 -36 54 -67 86 -67 38 0 620 158
669 181 57 27 127 107 144 164 7 25 20 47 29 50 128 37 237 44 302 18 24 -9
286 -156 583 -327 297 -170 568 -322 601 -337 140 -64 322 -90 476 -70 68 9
251 66 820 257 402 135 750 255 772 266 59 30 139 111 170 171 100 198 18 441
-181 539 -55 27 -79 33 -152 35 -82 4 -105 -1 -531 -110 l-445 -114 0 91 c-1
128 -27 190 -114 276 -60 58 -139 107 -786 479 -395 228 -746 425 -779 439
-47 19 -82 25 -156 28 -52 1 -106 0 -120 -3z m180 -203 c57 -16 1491 -846
1527 -884 73 -78 67 -203 -13 -278 -38 -35 -74 -48 -135 -48 -62 0 -42 -10
-556 286 -460 266 -463 268 -522 218 -26 -22 -31 -33 -31 -70 0 -35 6 -50 25
-68 34 -31 921 -541 970 -557 70 -23 190 -16 268 15 93 38 1149 306 1204 306
123 0 220 -131 183 -247 -17 -51 -54 -99 -92 -119 -17 -9 -354 -124 -747 -256
-488 -163 -741 -243 -793 -250 -91 -13 -208 0 -308 33 -34 12 -301 159 -593
326 -592 339 -631 360 -702 379 -71 19 -187 17 -280 -5 -44 -11 -80 -19 -81
-18 -4 9 -265 992 -267 1008 -2 20 27 29 398 129 406 110 468 121 545 100z
m-1209 -147 c15 -9 31 -24 35 -32 20 -50 316 -1173 317 -1203 3 -69 -19 -80
-292 -154 -134 -36 -247 -62 -251 -57 -11 11 -362 1325 -355 1331 2 3 43 15
90 28 63 17 87 20 90 11 3 -7 45 -162 94 -345 96 -357 104 -376 166 -388 68
-12 134 53 119 119 -3 18 -44 172 -90 344 -46 172 -84 318 -84 326 0 14 56 34
103 36 16 0 42 -7 58 -16z"/>
<path d="M736 999 c-38 -30 -49 -63 -36 -109 12 -46 46 -70 98 -70 51 0 89 30
98 76 17 93 -87 160 -160 103z"/>
</g>
</svg>
